<svg version="1.2" xmlns="http://www.w3.org/2000/svg" xmlns:xlink="http://www.w3.org/1999/xlink" overflow="visible" preserveAspectRatio="none" viewBox="0 0 19 24.999999999999943" width="19" height="24.999999999999943"><g transform="translate(0, 0)"><g transform="translate(0, -3.5925040720030665e-11) rotate(0)"><path d="M18.30234,4.78422l-4.1513,-4.09588c-0.44531,-0.43937 -1.04896,-0.68834 -1.67734,-0.68834h-10.0987c-1.3112,0.00488 -2.375,1.05448 -2.375,2.34817v20.30853c0,1.29369 1.0638,2.34329 2.375,2.34329h14.25c1.3112,0 2.375,-1.0496 2.375,-2.34329v-16.21265c0,-0.62 -0.25234,-1.22046 -0.69766,-1.65983zM17.18411,5.8924c0.10391,0.10252 0.17318,0.22457 0.20781,0.36126h-4.72526v-4.66218c0.13854,0.03417 0.26224,0.10252 0.36615,0.20504zM16.625,23.43781h-14.25c-0.43542,0 -0.79167,-0.35149 -0.79167,-0.7811v-20.30853c0,-0.4296 0.35625,-0.7811 0.79167,-0.7811h8.70833v5.07713c0,0.64929 0.52943,1.17165 1.1875,1.17165h5.14583v14.84085c0,0.4296 -0.35625,0.7811 -0.79167,0.7811zM15.53646,15.08006c-0.66797,-0.64929 -2.72135,-0.44913 -3.64661,-0.32708c-1.04896,-0.62488 -1.74167,-1.48409 -2.23151,-2.76313c0.21276,-0.87873 0.59375,-2.30424 0.31667,-3.16833c-0.21771,-1.3718 -1.96432,-1.20582 -2.20677,-0.33197c-0.2474,0.89338 -0.01484,2.16755 0.41562,3.79809c-0.5888,1.38645 -1.46953,3.26596 -2.08307,4.32533c-1.02917,0.52236 -2.67682,1.43038 -2.90937,2.55809c-0.17318,0.82015 1.13307,1.92345 2.62734,0.31244c0.45026,-0.4833 0.95495,-1.2107 1.5487,-2.22125c1.32109,-0.4296 2.77578,-0.96661 4.05729,-1.17165c1.08359,0.58582 2.35521,0.97149 3.19635,0.97149c1.37057,0.00488 1.42995,-1.47432 0.91536,-1.98203zM4.19583,19.42492c0.29193,-0.77622 1.4151,-1.67936 1.75651,-1.9918c-1.09349,1.7233 -1.75651,2.02597 -1.75651,1.9918zM8.90625,8.57254c0.43047,0 0.38594,1.8307 0.10391,2.32376c-0.25729,-0.79574 -0.2474,-2.32376 -0.10391,-2.32376zM7.50104,16.34935c0.55911,-0.96661 1.03906,-2.10896 1.425,-3.10974c0.47995,0.86409 1.09349,1.54755 1.73672,2.02597c-1.20234,0.22945 -2.24635,0.73716 -3.16172,1.08377zM15.09115,16.06132c0,0 -0.28698,0.34173 -2.15234,-0.44425c2.02865,-0.14646 2.36016,0.31244 2.15234,0.44425z" style="stroke-width: 0; stroke-linecap: butt; stroke-linejoin: miter; fill: rgb(95, 106, 114);" vector-effect="non-scaling-stroke"/></g><defs><path id="path-165527829979915266" d="M18.30234,4.78422l-4.1513,-4.09588c-0.44531,-0.43937 -1.04896,-0.68834 -1.67734,-0.68834h-10.0987c-1.3112,0.00488 -2.375,1.05448 -2.375,2.34817v20.30853c0,1.29369 1.0638,2.34329 2.375,2.34329h14.25c1.3112,0 2.375,-1.0496 2.375,-2.34329v-16.21265c0,-0.62 -0.25234,-1.22046 -0.69766,-1.65983zM17.18411,5.8924c0.10391,0.10252 0.17318,0.22457 0.20781,0.36126h-4.72526v-4.66218c0.13854,0.03417 0.26224,0.10252 0.36615,0.20504zM16.625,23.43781h-14.25c-0.43542,0 -0.79167,-0.35149 -0.79167,-0.7811v-20.30853c0,-0.4296 0.35625,-0.7811 0.79167,-0.7811h8.70833v5.07713c0,0.64929 0.52943,1.17165 1.1875,1.17165h5.14583v14.84085c0,0.4296 -0.35625,0.7811 -0.79167,0.7811zM15.53646,15.08006c-0.66797,-0.64929 -2.72135,-0.44913 -3.64661,-0.32708c-1.04896,-0.62488 -1.74167,-1.48409 -2.23151,-2.76313c0.21276,-0.87873 0.59375,-2.30424 0.31667,-3.16833c-0.21771,-1.3718 -1.96432,-1.20582 -2.20677,-0.33197c-0.2474,0.89338 -0.01484,2.16755 0.41562,3.79809c-0.5888,1.38645 -1.46953,3.26596 -2.08307,4.32533c-1.02917,0.52236 -2.67682,1.43038 -2.90937,2.55809c-0.17318,0.82015 1.13307,1.92345 2.62734,0.31244c0.45026,-0.4833 0.95495,-1.2107 1.5487,-2.22125c1.32109,-0.4296 2.77578,-0.96661 4.05729,-1.17165c1.08359,0.58582 2.35521,0.97149 3.19635,0.97149c1.37057,0.00488 1.42995,-1.47432 0.91536,-1.98203zM4.19583,19.42492c0.29193,-0.77622 1.4151,-1.67936 1.75651,-1.9918c-1.09349,1.7233 -1.75651,2.02597 -1.75651,1.9918zM8.90625,8.57254c0.43047,0 0.38594,1.8307 0.10391,2.32376c-0.25729,-0.79574 -0.2474,-2.32376 -0.10391,-2.32376zM7.50104,16.34935c0.55911,-0.96661 1.03906,-2.10896 1.425,-3.10974c0.47995,0.86409 1.09349,1.54755 1.73672,2.02597c-1.20234,0.22945 -2.24635,0.73716 -3.16172,1.08377zM15.09115,16.06132c0,0 -0.28698,0.34173 -2.15234,-0.44425c2.02865,-0.14646 2.36016,0.31244 2.15234,0.44425z" vector-effect="non-scaling-stroke"/></defs></g></svg>